<svg width="115" height="189" viewBox="0 0 115 189" fill="none" xmlns="http://www.w3.org/2000/svg">
<path fill-rule="evenodd" clip-rule="evenodd" d="M17 8.5C17 3.80558 13.1944 0 8.5 0C3.80558 0 0 3.80558 0 8.5V160.5C0 165.194 3.80558 169 8.5 169C13.1944 169 17 165.194 17 160.5V8.5ZM111.65 54.9784C114.952 51.6414 114.923 46.2596 111.586 42.9578C108.249 39.656 102.868 39.6846 99.5657 43.0216L34.2284 109.056C30.9311 112.389 30.9545 117.762 34.2807 121.065L99.6896 186.031C103.02 189.339 108.402 189.32 111.71 185.99C115.018 182.659 115 177.277 111.669 173.969L52.2799 114.982L111.65 54.9784Z" fill="#FF1E56"/>
</svg>
