<svg width="268" height="68" viewBox="0 0 268 68" fill="none" xmlns="http://www.w3.org/2000/svg">
<path d="M0.545898 0.625H9.45215V33.6719L43.9053 0.625H55.1084L19.0146 35.0312L56.6553 67H42.9678L9.45215 37.7031V67H0.545898V0.625ZM73.4756 11.8828C73.4756 13.3411 73.0329 14.513 72.1475 15.3984C71.262 16.2839 70.0902 16.7266 68.6318 16.7266C67.1735 16.7266 66.0016 16.2839 65.1162 15.3984C64.2308 14.513 63.7881 13.3411 63.7881 11.8828C63.7881 10.4245 64.2308 9.26562 65.1162 8.40625C66.0016 7.52083 67.1735 7.07812 68.6318 7.07812C70.0902 7.07812 71.262 7.52083 72.1475 8.40625C73.0329 9.26562 73.4756 10.4245 73.4756 11.8828ZM64.9209 27.9375H72.3428V67H64.9209V27.9375ZM95.6167 33.4844H81.3296V28.9727H114.872V33.4844H100.585V67H95.6167V33.4844Z" fill="#FF1E56"/>
<path d="M120.377 48.3086C120.377 45.444 120.807 42.7853 121.667 40.3325C122.544 37.8797 123.797 35.776 125.426 34.0215C128.882 30.2975 133.492 28.4355 139.257 28.4355C144.825 28.4355 149.292 30.2259 152.658 33.8066C155.988 37.3337 157.653 41.9259 157.653 47.5835C157.653 53.5454 155.97 58.3346 152.604 61.9512C149.149 65.6751 144.538 67.5371 138.773 67.5371C133.205 67.5371 128.729 65.7467 125.346 62.166C122.034 58.6748 120.377 54.0557 120.377 48.3086ZM125.641 47.6372C125.641 49.7856 125.937 51.7998 126.527 53.6797C127.136 55.5596 128.022 57.1978 129.186 58.5942C131.675 61.5841 135.032 63.0791 139.257 63.0791C143.375 63.0791 146.615 61.6826 148.979 58.8896C151.252 56.2041 152.389 52.7039 152.389 48.3892C152.389 43.8774 151.208 40.2072 148.844 37.3784C146.356 34.3885 142.999 32.8936 138.773 32.8936C134.674 32.8936 131.433 34.29 129.052 37.083C126.778 39.7327 125.641 43.2508 125.641 47.6372ZM175.941 31.1016C179.457 28.4714 183.676 27.1562 188.598 27.1562C194.197 27.1562 198.715 29.0052 202.152 32.7031C205.512 36.2969 207.191 40.9583 207.191 46.6875C207.191 52.9115 204.743 58.0417 199.848 62.0781C195.186 65.8802 189.509 67.7812 182.816 67.7812C179.874 67.7812 176.957 67.5729 174.066 67.1562C171.176 66.7396 169.327 66.4271 168.52 66.2188V6.02344H175.941V31.1016ZM175.941 60.2031C177.921 61.0885 180.238 61.5312 182.895 61.5312C185.577 61.5312 187.908 61.2057 189.887 60.5547C191.866 59.9036 193.585 58.9661 195.043 57.7422C198.194 55.0859 199.77 51.5573 199.77 47.1562C199.77 43.276 198.754 40.0599 196.723 37.5078C194.509 34.7734 191.632 33.4062 188.09 33.4062C184.262 33.4062 180.967 34.4219 178.207 36.4531C177.27 37.1302 176.514 37.9115 175.941 38.7969V60.2031ZM215.905 59.207L256.4 9.06299H215.905V1.27002H267.116V9.06299L226.62 59.207H267.116V67H215.905V59.207Z" fill="white"/>
</svg>
